<svg width="80" height="80" viewBox="0 0 80 80" fill="none" xmlns="http://www.w3.org/2000/svg">
<g filter="url(#filter0_d_0_4347)">
<path fill-rule="evenodd" clip-rule="evenodd" d="M34.0123 31.4907C34.6661 31.4907 35.1951 32.0203 35.1951 32.6735V63.8685C35.1951 64.5217 34.6661 65.0513 34.0123 65.0513H8.87886C8.22569 65.0513 7.69611 64.5217 7.69611 63.8685V32.6735C7.69611 32.0203 8.22569 31.4907 8.87886 31.4907H34.0123ZM10.0616 62.6858H32.8296V33.8562H10.0616V62.6858Z" fill="black"/>
<path d="M22.6358 66.0862H20.2651C19.6114 66.0862 19.0824 66.6158 19.0824 67.2689C19.0824 67.9221 19.6114 68.4517 20.2651 68.4517H22.6358C23.289 68.4517 23.8186 67.9221 23.8186 67.2689C23.8186 66.6158 23.289 66.0862 22.6358 66.0862Z" fill="black"/>
<path fill-rule="evenodd" clip-rule="evenodd" d="M72.3293 -2.11829e-05H56.2986C54.3206 -2.11829e-05 52.6406 1.54541 52.6406 3.5234V9.75768H16.2924C12.6021 9.76865 9.61689 12.7642 9.61805 16.454V27.7946H8.89384C6.16797 27.7946 3.99998 30.062 3.99998 32.7907V66.9588C3.99247 68.2594 4.50588 69.5092 5.42644 70.4286C6.34642 71.348 7.59617 71.8608 8.89673 71.8521H34.9825C36.0498 71.8614 37.0737 71.434 37.8181 70.6694C38.5608 69.9036 39.039 68.9316 38.8911 67.8713V62.0944H66.4669C70.1665 62.0881 73.169 59.0983 73.1909 55.3981V51.169C73.1736 50.5049 72.6319 49.9747 71.9678 49.9712H70.2341V38.4394H72.3293C74.3073 38.4394 75.8521 36.7606 75.8521 34.7826V3.5234C75.8631 2.58552 75.4958 1.68344 74.8322 1.01987C74.1693 0.356883 73.2666 -0.010994 72.3293 -2.11829e-05ZM55.0061 7.68786H73.4866V28.8295H55.0061V7.68786ZM72.3293 2.36548H56.2986C55.6252 2.36548 55.0061 2.85002 55.0061 3.5234V5.32236H73.4866V3.5234C73.4988 3.21327 73.3804 2.91181 73.1609 2.69178C72.9409 2.47232 72.6394 2.35393 72.3293 2.36548ZM11.9836 16.454C11.9807 14.07 13.9078 12.133 16.2924 12.1232H52.6406V15.5236H16.2196C15.5665 15.5236 15.0883 16.1179 15.0883 16.771V27.7946H11.9836V16.454ZM34.9825 69.4866C35.4209 69.5005 35.8453 69.333 36.156 69.0235C36.4413 68.7249 36.5886 68.3212 36.5626 67.9094C36.5626 67.9034 36.5537 67.9014 36.5447 67.8993C36.5358 67.8973 36.5268 67.8953 36.5268 67.8892V32.7907C36.5268 31.3654 35.4272 30.1601 33.9984 30.1601H8.89673C7.47142 30.1601 6.36548 31.3654 6.36548 32.7942V66.9554C6.35682 67.6305 6.62132 68.2796 7.09835 68.7567C7.57595 69.2331 8.22566 69.4965 8.90077 69.4866H34.9825ZM34.0019 27.7946H17.4538V17.8891H52.6406V34.7826C52.6707 36.7906 54.2912 38.4105 56.2986 38.4394H62.3983V49.9712H47.9963C47.6653 49.9741 47.35 50.115 47.1265 50.3599L46.0102 51.5536C45.1901 52.4349 44.0391 52.9333 42.835 52.9281H38.8911V32.7873C38.8911 30.062 36.7307 27.7946 34.0019 27.7946ZM66.4669 59.7289C68.8607 59.7237 70.8046 57.7925 70.8254 55.3981V52.3367H48.5149L47.7497 53.1533C46.4814 54.5209 44.6998 55.2965 42.835 55.2936H38.8911V59.7289H66.4669ZM67.8686 49.9712H64.7638V38.4394H67.8686V49.9712ZM56.2986 36.0739H72.3293C73.0027 36.0739 73.4866 35.4565 73.4866 34.7826V31.1951H55.0061V34.7826C55.0344 35.4843 55.5975 36.0468 56.2986 36.0739Z" fill="black"/>
<path d="M65.9466 32.23H62.8419C62.1887 32.23 61.6591 32.7596 61.6591 33.4127C61.6591 34.0659 62.1887 34.5955 62.8419 34.5955H65.9466C66.6003 34.5955 67.1293 34.0659 67.1293 33.4127C67.1293 32.7596 66.6003 32.23 65.9466 32.23Z" fill="black"/>
</g>
<defs>
<filter id="filter0_d_0_4347" x="-0.00012207" y="-0.000244141" width="79.8525" height="79.8525" filterUnits="userSpaceOnUse" color-interpolation-filters="sRGB">
<feFlood flood-opacity="0" result="BackgroundImageFix"/>
<feColorMatrix in="SourceAlpha" type="matrix" values="0 0 0 0 0 0 0 0 0 0 0 0 0 0 0 0 0 0 127 0" result="hardAlpha"/>
<feOffset dy="4"/>
<feGaussianBlur stdDeviation="2"/>
<feComposite in2="hardAlpha" operator="out"/>
<feColorMatrix type="matrix" values="0 0 0 0 0 0 0 0 0 0 0 0 0 0 0 0 0 0 0.25 0"/>
<feBlend mode="normal" in2="BackgroundImageFix" result="effect1_dropShadow_0_4347"/>
<feBlend mode="normal" in="SourceGraphic" in2="effect1_dropShadow_0_4347" result="shape"/>
</filter>
</defs>
</svg>
