<svg width="71" height="72" viewBox="0 0 71 72" fill="none" xmlns="http://www.w3.org/2000/svg">
<path fill-rule="evenodd" clip-rule="evenodd" d="M38.9508 62.5573H41.3115C41.9634 62.5573 42.4918 63.0858 42.4918 63.7376V66.0983C42.4918 69.3577 39.8495 71.9999 36.5902 71.9999H5.90164C2.64225 71.9999 0 69.3577 0 66.0983V63.7376C0 63.0858 0.528451 62.5573 1.18033 62.5573H3.54098V37.7704C3.54098 37.1185 4.06943 36.5901 4.72131 36.5901H15.722C16.3738 36.5901 16.9023 37.1185 16.9023 37.7704C16.9023 38.4223 16.3738 38.9507 15.722 38.9507H5.90164V62.5573H36.5902V50.9901C36.5902 50.3382 37.1186 49.8098 37.7705 49.8098C38.4224 49.8098 38.9508 50.3382 38.9508 50.9901V62.5573ZM36.5902 69.6393C38.5458 69.6393 40.1311 68.0539 40.1311 66.0983V64.918H2.36066V66.0983C2.36066 68.0539 3.94601 69.6393 5.90164 69.6393H8.26229V68.4589C8.26229 67.8071 8.79075 67.2786 9.44262 67.2786C10.0945 67.2786 10.623 67.8071 10.623 68.4589V69.6393H31.8689V68.4589C31.8689 67.8071 32.3973 67.2786 33.0492 67.2786C33.7011 67.2786 34.2295 67.8071 34.2295 68.4589V69.6393H36.5902Z" fill="black"/>
<path d="M61.377 8.26227H63.7377C64.3896 8.26227 64.918 7.73382 64.918 7.08194C64.918 6.43006 64.3896 5.90161 63.7377 5.90161H61.377C59.4214 5.90161 57.8361 7.48696 57.8361 9.4426V10.6229H56.6557C56.0039 10.6229 55.4754 11.1514 55.4754 11.8033C55.4754 12.4551 56.0039 12.9836 56.6557 12.9836H57.8361V16.5246C57.8361 17.1764 58.3645 17.7049 59.0164 17.7049C59.6683 17.7049 60.1967 17.1764 60.1967 16.5246V12.9836H61.377C62.0289 12.9836 62.5574 12.4551 62.5574 11.8033C62.5574 11.1514 62.0289 10.6229 61.377 10.6229H60.1967V9.4426C60.1967 8.79072 60.7252 8.26227 61.377 8.26227Z" fill="black"/>
<path d="M67.2787 1.18042H53.1148C51.1591 1.18042 49.5738 2.76577 49.5738 4.7214V7.08206C49.5738 7.73394 50.1022 8.26239 50.7541 8.26239C51.406 8.26239 51.9344 7.73394 51.9344 7.08206V4.7214C51.9344 4.06953 52.4629 3.54108 53.1148 3.54108H67.2787C67.9306 3.54108 68.459 4.06953 68.459 4.7214V18.8853C68.459 19.5372 67.9306 20.0657 67.2787 20.0657H53.1148C52.4629 20.0657 51.9344 19.5372 51.9344 18.8853V11.8034C51.9344 11.1515 51.406 10.623 50.7541 10.623C50.1022 10.623 49.5738 11.1515 49.5738 11.8034V18.8853C49.5738 20.841 51.1591 22.4263 53.1148 22.4263H67.2787C69.2343 22.4263 70.8197 20.841 70.8197 18.8853V4.7214C70.8197 2.76577 69.2343 1.18042 67.2787 1.18042V1.18042Z" fill="black"/>
<path fill-rule="evenodd" clip-rule="evenodd" d="M60.1967 53.1147C57.5892 53.1147 55.4754 51.0009 55.4754 48.3934C55.4754 45.7859 57.5892 43.6721 60.1967 43.6721C62.8042 43.6721 64.918 45.7859 64.918 48.3934C64.918 51.0009 62.8042 53.1147 60.1967 53.1147ZM60.1967 50.7541C61.5005 50.7541 62.5574 49.6972 62.5574 48.3934C62.5574 47.0897 61.5005 46.0328 60.1967 46.0328C58.893 46.0328 57.8361 47.0897 57.8361 48.3934C57.8361 49.6972 58.893 50.7541 60.1967 50.7541Z" fill="black"/>
<path d="M67.2787 37.7705H53.1148C51.1591 37.7705 49.5738 39.3559 49.5738 41.3115V55.4754C49.5738 57.4311 51.1591 59.0164 53.1148 59.0164H67.2787C69.2343 59.0164 70.8197 57.4311 70.8197 55.4754V53.1148C70.8197 52.4629 70.2912 51.9344 69.6393 51.9344C68.9875 51.9344 68.459 52.4629 68.459 53.1148V55.4754C68.459 56.1273 67.9306 56.6558 67.2787 56.6558H53.1148C52.4629 56.6558 51.9344 56.1273 51.9344 55.4754V41.3115C51.9344 40.6596 52.4629 40.1312 53.1148 40.1312H67.2787C67.9306 40.1312 68.459 40.6596 68.459 41.3115V48.3935C68.459 49.0453 68.9875 49.5738 69.6393 49.5738C70.2912 49.5738 70.8197 49.0453 70.8197 48.3935V41.3115C70.8197 39.3559 69.2343 37.7705 67.2787 37.7705Z" fill="black"/>
<path fill-rule="evenodd" clip-rule="evenodd" d="M27.1475 15.3443C26.9266 15.345 26.7098 15.2837 26.522 15.1673C26.1761 14.9511 25.9664 14.5718 25.9672 14.164V7.08203C25.9685 6.67294 26.1814 6.29366 26.5301 6.07965C26.8787 5.86565 27.3134 5.84744 27.6787 6.03154L34.7607 9.57252C35.1548 9.77447 35.4028 10.1801 35.4028 10.623C35.4028 11.0659 35.1548 11.4716 34.7607 11.6735L27.6787 15.2145C27.5142 15.2987 27.3323 15.3432 27.1475 15.3443ZM31.5856 10.623L28.3279 8.99416V12.2519L31.5856 10.623Z" fill="black"/>
<path fill-rule="evenodd" clip-rule="evenodd" d="M40.1311 10.623C40.1311 16.4898 35.3751 21.2459 29.5082 21.2459C23.6413 21.2459 18.8852 16.4898 18.8852 10.623C18.8852 4.75606 23.6413 0 29.5082 0C35.3751 0 40.1311 4.75606 40.1311 10.623ZM37.7705 10.623C37.7705 6.05981 34.0713 2.36066 29.5082 2.36066C24.9451 2.36066 21.2459 6.05981 21.2459 10.623C21.2459 15.1861 24.9451 18.8852 29.5082 18.8852C34.0713 18.8852 37.7705 15.1861 37.7705 10.623Z" fill="black"/>
<path d="M41.3115 25.9673C41.683 25.9673 42.0328 25.7924 42.2557 25.4952L45.7967 20.7738C46.1878 20.2523 46.0822 19.5125 45.5607 19.1214C45.0392 18.7303 44.2993 18.836 43.9082 19.3575L40.3672 24.0788C39.9761 24.6003 40.0818 25.3401 40.6033 25.7312C40.8076 25.8845 41.0561 25.9673 41.3115 25.9673Z" fill="black"/>
<path d="M43.9082 30.2164C44.1311 30.5137 44.4809 30.6886 44.8525 30.6886C45.1078 30.6886 45.3563 30.6057 45.5607 30.4525L50.282 26.9115C50.8035 26.5204 50.9092 25.7806 50.518 25.2591C50.1269 24.7376 49.3871 24.6319 48.8656 25.023L44.1443 28.564C43.6228 28.9551 43.5171 29.6949 43.9082 30.2164Z" fill="black"/>
<path d="M55.4754 32.8131C55.4187 32.4969 55.2356 32.2175 54.9683 32.0393C54.7011 31.8611 54.3727 31.7996 54.059 31.8689L48.1574 33.0492C47.5055 33.1144 47.0299 33.6957 47.0951 34.3475C47.1603 34.9994 47.7416 35.475 48.3934 35.4098H48.6295L54.5311 34.2295C54.8473 34.1728 55.1268 33.9897 55.305 33.7224C55.4831 33.4551 55.5447 33.1268 55.4754 32.8131Z" fill="black"/>
<path fill-rule="evenodd" clip-rule="evenodd" d="M15.3443 33.0491H1.18033C0.528451 33.0491 0 32.5207 0 31.8688V12.9836C0 12.3317 0.528451 11.8032 1.18033 11.8032H15.3443C15.9961 11.8032 16.5246 12.3317 16.5246 12.9836V31.8688C16.5246 32.5207 15.9961 33.0491 15.3443 33.0491ZM14.1639 14.1639H2.36066V30.6885H14.1639V14.1639Z" fill="black"/>
<path d="M10.623 16.5247H8.2623C7.61042 16.5247 7.08197 17.0531 7.08197 17.705C7.08197 18.3569 7.61042 18.8853 8.2623 18.8853H10.623C11.2748 18.8853 11.8033 18.3569 11.8033 17.705C11.8033 17.0531 11.2748 16.5247 10.623 16.5247Z" fill="black"/>
<path d="M10.623 21.2458H5.90164C5.24976 21.2458 4.72131 21.7743 4.72131 22.4262C4.72131 23.0781 5.24976 23.6065 5.90164 23.6065H10.623C11.2748 23.6065 11.8033 23.0781 11.8033 22.4262C11.8033 21.7743 11.2748 21.2458 10.623 21.2458Z" fill="black"/>
<path d="M10.623 25.9673H5.90164C5.24976 25.9673 4.72131 26.4957 4.72131 27.1476C4.72131 27.7995 5.24976 28.3279 5.90164 28.3279H10.623C11.2748 28.3279 11.8033 27.7995 11.8033 27.1476C11.8033 26.4957 11.2748 25.9673 10.623 25.9673Z" fill="black"/>
<path fill-rule="evenodd" clip-rule="evenodd" d="M40.2728 32.6952C40.0619 32.3283 39.6714 32.1018 39.2482 32.1009C38.8251 32.1001 38.4337 32.3251 38.2214 32.6911C38.0091 33.0571 38.0082 33.5086 38.219 33.8755L43.4243 42.8814L24.539 49.9634H24.4564H24.362L21.2931 51.7338L19.2511 52.9142C18.7082 53.228 18.0627 53.313 17.457 53.1502C16.8546 52.9875 16.3411 52.5928 16.0289 52.0525L13.6682 47.9686C13.0916 46.8594 13.4798 45.493 14.5534 44.8525L18.6374 42.4919L21.5882 47.6027C21.7999 47.9693 22.1917 48.1945 22.6151 48.1929C23.0376 48.1945 23.4288 47.9702 23.6408 47.6047C23.8528 47.2392 23.8532 46.7883 23.642 46.4224L20.5967 41.1581L35.4098 28.9417L35.8938 29.7797C36.2197 30.3469 36.9437 30.5424 37.5108 30.2165C38.0779 29.8905 38.2735 29.1666 37.9475 28.5994L36.7672 26.5574C36.5921 26.2581 36.2943 26.0509 35.9528 25.9909C35.6094 25.9262 35.2549 26.0169 34.9849 26.2388L18.4603 39.8597L13.4321 42.7634C11.5764 43.8443 10.6839 46.0414 11.2603 48.1102L10.08 48.783C8.83624 49.4973 8.14616 50.8912 8.33233 52.3133C8.5185 53.7354 9.54414 54.9048 10.9298 55.2748C11.2302 55.3544 11.5398 55.3941 11.8505 55.3929C12.4714 55.3903 13.0812 55.2277 13.621 54.9207L14.8013 54.2479C15.3683 54.8337 16.0814 55.2574 16.8669 55.4755C17.2702 55.5883 17.6874 55.6439 18.1062 55.6407C18.9359 55.6426 19.7509 55.4226 20.4669 55.0034L21.4938 54.4132L23.8544 58.5089C24.8312 60.1977 26.9899 60.7782 28.682 59.8073C29.4963 59.3381 30.0907 58.5644 30.3342 57.6567C30.5777 56.749 30.4504 55.7817 29.9803 54.9679L27.8321 51.2263L45.537 44.5811C45.862 44.4589 46.1168 44.1999 46.2334 43.8729C46.3497 43.5498 46.3195 43.1922 46.1508 42.8932L40.2728 32.6952ZM12.3934 52.867C12.122 53.0239 11.7992 53.0664 11.4964 52.985C11.194 52.9064 10.9351 52.7112 10.7764 52.442C10.6195 52.1706 10.577 51.8478 10.6584 51.545C10.7397 51.2406 10.9395 50.9813 11.2131 50.825L12.24 50.2348L13.4203 52.2768L12.3934 52.867ZM28.0446 57.0689C28.126 56.7661 28.0835 56.4433 27.9266 56.1719L25.5777 52.1352H25.4833L23.5239 53.2565L25.8846 57.3522C26.2127 57.9099 26.9287 58.0994 27.4898 57.7771C27.761 57.6235 27.9604 57.369 28.0446 57.0689Z" fill="black"/>
</svg>
