<svg width="72" height="36" viewBox="0 0 72 36" fill="none" xmlns="http://www.w3.org/2000/svg">
<path d="M71.0868 19.1053C70.5087 19.0263 69.9765 19.431 69.8976 20.0088C69.388 23.741 67.5411 27.1742 64.6968 29.6758C61.8269 32.1999 58.1393 33.59 54.3127 33.59C52.2308 33.59 50.2086 33.19 48.3023 32.4011C48.2706 32.3881 48.2341 32.3753 48.2012 32.3653C48.1788 32.3585 45.9292 31.6558 42.5797 28.9969C42.1228 28.6342 41.4586 28.7107 41.096 29.1675C40.7334 29.6244 40.8098 30.2885 41.2665 30.6512C44.7029 33.3788 47.1171 34.2346 47.538 34.3706C49.6889 35.254 51.9678 35.702 54.3127 35.702C58.6529 35.702 62.836 34.1251 66.0916 31.2618C69.3171 28.425 71.4119 24.5301 71.9903 20.2947C72.069 19.7166 71.6646 19.1842 71.0868 19.1053Z" fill="black"/>
<path fill-rule="evenodd" clip-rule="evenodd" d="M54.3835 29.2093C50.6997 29.2095 47.9122 27.167 45.6709 25.169C43.2558 23.0159 41.2518 20.9119 40.1889 19.7539C39.8391 20.1692 38.8537 21.3663 38.0494 22.3433C37.6071 22.8806 37.2196 23.3514 37.0228 23.5888C37.6765 24.3464 38.3421 25.0726 39.007 25.7532C39.4145 26.1704 39.4066 26.839 38.9894 27.2465C38.5722 27.6539 37.9036 27.646 37.4961 27.2289C36.8835 26.6019 36.2713 25.938 35.6677 25.2484C29.3517 32.9358 25.4364 34.1982 24.5635 34.3924C22.6583 35.1678 20.6446 35.6033 18.5767 35.6871C18.5696 35.6875 18.5625 35.6876 18.5555 35.6878H18.5552L17.8637 35.7017L17.8423 35.7019C13.0518 35.7019 8.55477 33.8294 5.17963 30.4295C1.80477 27.0299 -0.0344637 22.5187 0.000411317 17.7265C0.0351457 12.9719 1.93429 8.50568 5.34782 5.15037C8.76346 1.79323 13.2615 -0.0319435 18.0235 0.0178378C20.242 0.0399159 22.4038 0.464744 24.4491 1.28051C24.5459 1.31918 24.6434 1.35743 24.7416 1.39413C25.7143 1.75779 30.6581 3.86253 36.2247 10.7921C42.6957 2.81782 46.7079 1.52337 47.5914 1.32649C49.4968 0.551088 51.5104 0.115572 53.5784 0.0317597C53.5856 0.0313378 53.5927 0.0311972 53.5999 0.0310566L54.2914 0.0171347L54.3127 0.0169941C58.5915 0.0169941 62.7296 1.55473 65.9648 4.34684C69.166 7.10956 71.2876 10.9197 71.9391 15.0755C72.0294 15.6517 71.6355 16.192 71.0593 16.2824C70.4831 16.3722 69.9428 15.9788 69.8525 15.4026C69.2785 11.7403 67.4077 8.38179 64.5848 5.9456C61.7356 3.48663 58.0916 2.13143 54.323 2.1289L53.6535 2.1424C51.803 2.21862 50.0026 2.61406 48.3021 3.31774C48.2162 3.35332 48.1617 3.37245 48.0719 3.38398C47.8595 3.43278 44.0058 4.42053 37.5085 12.5654C37.5062 12.5682 37.5039 12.5711 37.5016 12.5739C37.4995 12.5765 37.4974 12.579 37.4953 12.5816C37.4953 12.5816 30.1532 21.3266 27.1093 24.5208C25.029 26.7037 22.0877 29.2093 17.7723 29.2093C11.5139 29.2092 6.42247 24.1176 6.42247 17.8594C6.42247 14.0553 8.31444 10.5227 11.4834 8.40921C11.9689 8.08578 12.6245 8.21684 12.9479 8.70199C13.2715 9.18729 13.1404 9.84289 12.6551 10.1665C10.0749 11.8869 8.53452 14.7625 8.53452 17.8589C8.53452 22.9527 12.6787 27.0969 17.7725 27.0969C20.5139 27.0969 22.922 25.8528 25.5805 23.0632C27.3793 21.1759 29.0353 19.3609 30.582 17.5816C29.6035 16.5094 27.5408 14.3205 25.0791 12.1258C21.6162 9.03879 19.4424 8.62113 17.7729 8.62113H17.7689C17.4614 8.62113 17.1513 8.6366 16.8469 8.66684C16.2676 8.72393 15.7493 8.30079 15.6916 7.72043C15.634 7.14007 16.0577 6.62299 16.638 6.5652C17.0114 6.52807 17.3918 6.50923 17.7684 6.50923H17.7722C21.4558 6.50923 24.2432 8.55153 26.4845 10.5495C28.8997 12.7026 30.903 14.806 31.9663 15.9643C32.5083 15.3208 34.8518 12.4587 34.8518 12.4587C29.3974 5.53484 24.5517 3.57762 24.002 3.37203C23.8898 3.32998 23.7786 3.28638 23.6673 3.24209C21.8649 2.52321 19.9593 2.14901 18.0027 2.12946C17.9498 2.12904 17.8963 2.12876 17.8435 2.12876C13.7088 2.12876 9.80296 3.73287 6.82846 6.65646C3.81796 9.61535 2.14311 13.5522 2.1126 17.7415C2.08166 21.9667 3.70335 25.9442 6.67869 28.9413C9.65179 31.9362 13.6125 33.5867 17.8318 33.5895L18.5016 33.576C20.3519 33.5 22.1525 33.1045 23.8529 32.4008C23.9387 32.3652 23.9934 32.3463 24.0831 32.3346C24.2983 32.2852 28.2292 31.2765 34.8477 22.8999C35.0986 22.5825 42.0019 14.3921 45.0458 11.1979C47.1261 9.01517 50.0677 6.50951 54.3826 6.50951H54.3828C60.6411 6.50951 65.7326 11.601 65.7326 17.8594C65.7326 24.1155 60.6431 29.2069 54.3871 29.2093H54.3835ZM54.3828 8.62156C51.6413 8.62142 49.2332 9.86538 46.5747 12.6551C44.7763 14.5422 43.1197 16.3572 41.5731 18.1361C42.5511 19.2082 44.614 21.3975 47.0762 23.5926C50.5391 26.6798 52.7131 27.0974 54.3826 27.0974H54.3863C59.4782 27.0955 63.6207 22.9514 63.6207 17.8595C63.6207 12.7656 59.4765 8.62156 54.3828 8.62156Z" fill="black"/>
</svg>
