<svg width="21" height="20" viewBox="0 0 21 20" fill="none" xmlns="http://www.w3.org/2000/svg">
<path fill-rule="evenodd" clip-rule="evenodd" d="M10.3333 0C7.61748 0 7.27748 0.0116667 6.21081 0.06C2.57915 0.226667 0.560813 2.24167 0.394146 5.87667C0.34498 6.94417 0.333313 7.28417 0.333313 10C0.333313 12.7158 0.34498 13.0567 0.393313 14.1233C0.55998 17.755 2.57498 19.7733 6.20998 19.94C7.27748 19.9883 7.61748 20 10.3333 20C13.0491 20 13.39 19.9883 14.4566 19.94C18.085 19.7733 20.1083 17.7583 20.2725 14.1233C20.3216 13.0567 20.3333 12.7158 20.3333 10C20.3333 7.28417 20.3216 6.94417 20.2733 5.8775C20.11 2.24917 18.0925 0.2275 14.4575 0.0608333C13.39 0.0116667 13.0491 0 10.3333 0ZM10.3333 1.8025C13.0033 1.8025 13.32 1.8125 14.375 1.86083C17.085 1.98417 18.3508 3.27 18.4741 5.96C18.5225 7.01417 18.5316 7.33083 18.5316 10.0008C18.5316 12.6717 18.5216 12.9875 18.4741 14.0417C18.35 16.7292 17.0875 18.0175 14.375 18.1408C13.32 18.1892 13.005 18.1992 10.3333 18.1992C7.66331 18.1992 7.34665 18.1892 6.29248 18.1408C3.57581 18.0167 2.31665 16.725 2.19331 14.0408C2.14498 12.9867 2.13498 12.6708 2.13498 10C2.13498 7.33 2.14581 7.01417 2.19331 5.95917C2.31748 3.27 3.57998 1.98333 6.29248 1.86C7.34748 1.8125 7.66331 1.8025 10.3333 1.8025ZM5.19831 10C5.19831 7.16417 7.49748 4.865 10.3333 4.865C13.1691 4.865 15.4683 7.16417 15.4683 10C15.4683 12.8367 13.1691 15.1358 10.3333 15.1358C7.49748 15.1358 5.19831 12.8358 5.19831 10ZM10.3333 13.3333C8.49248 13.3333 6.99998 11.8417 6.99998 10C6.99998 8.15917 8.49248 6.66667 10.3333 6.66667C12.1741 6.66667 13.6666 8.15917 13.6666 10C13.6666 11.8417 12.1741 13.3333 10.3333 13.3333ZM14.4708 4.6625C14.4708 4 15.0083 3.4625 15.6716 3.4625C16.3341 3.4625 16.8708 4 16.8708 4.6625C16.8708 5.325 16.3341 5.8625 15.6716 5.8625C15.0083 5.8625 14.4708 5.325 14.4708 4.6625Z" fill="white"/>
</svg>
